<svg width="24" height="22" viewBox="0 0 24 22" fill="none" xmlns="http://www.w3.org/2000/svg">
<path d="M23.5594 12.0594C24.1453 11.4734 24.1453 10.5219 23.5594 9.93594L17.5594 3.93594C16.9734 3.35 16.0219 3.35 15.4359 3.93594C14.85 4.52188 14.85 5.47344 15.4359 6.05938L18.8766 9.5H9C8.17031 9.5 7.5 10.1703 7.5 11C7.5 11.8297 8.17031 12.5 9 12.5H18.8766L15.4359 15.9406C14.85 16.5266 14.85 17.4781 15.4359 18.0641C16.0219 18.65 16.9734 18.65 17.5594 18.0641L23.5594 12.0641V12.0594ZM7.5 3.5C8.32969 3.5 9 2.82969 9 2C9 1.17031 8.32969 0.5 7.5 0.5H4.5C2.01562 0.5 0 2.51562 0 5V17C0 19.4844 2.01562 21.5 4.5 21.5H7.5C8.32969 21.5 9 20.8297 9 20C9 19.1703 8.32969 18.5 7.5 18.5H4.5C3.67031 18.5 3 17.8297 3 17V5C3 4.17031 3.67031 3.5 4.5 3.5H7.5Z" fill="#007BFF"/>
</svg>
