<svg width="1440" height="1024" viewBox="0 0 1440 1024" fill="none" xmlns="http://www.w3.org/2000/svg">
<g clip-path="url(#clip0_34_21)">
<rect width="1440" height="1024" fill="#98C6F7"/>
<path fill-rule="evenodd" clip-rule="evenodd" d="M1589.06 984.907C1593.22 1186.34 1389.46 1301.37 1261.13 1436.38C1153.01 1550.11 1041.77 1654.12 904.849 1704.7C762.367 1757.33 614.703 1768.59 471.393 1728.1C309.321 1682.31 136.248 1622.27 41.0388 1460.63C-56.284 1295.41 -90.6016 1065.69 -33.202 871.468C20.4226 690.021 220.66 648.732 324.749 500.662C429.446 351.726 401.543 294.927 544.45 202.386C695.132 104.81 901.69 97.4519 1040.7 209.405C1176.78 319.005 1153.71 391.088 1242.93 555.609C1335.7 726.696 1584.81 778.995 1589.06 984.907Z" fill="#004587"/>
<path fill-rule="evenodd" clip-rule="evenodd" d="M1013.41 -48.0244C1156.5 -153.535 1330.72 -89.7043 1485.46 -81.4942C1615.82 -74.5776 1740.59 -60.8053 1838.43 -4.25134C1940.25 54.5984 2014.62 137.724 2049.8 244.691C2089.58 365.662 2124.05 500.539 2050.47 640.5C1975.26 783.567 1825.35 921.695 1659.83 986.459C1505.19 1046.96 1428.06 1114.56 1274.79 1127.62C1099.2 1182.65 1034.79 1033.5 919.117 980.894C768.997 935.029 683.283 819.522 701.461 678.604C719.256 540.648 781.478 517.672 859.828 379.843C941.306 236.514 867.146 59.8301 1013.41 -48.0244Z" fill="#FAB15A"/>
</g>
<defs>
<clipPath id="clip0_34_21">
<rect width="1440" height="1024" fill="white"/>
</clipPath>
</defs>
</svg>
