<svg width="430" height="932" viewBox="0 0 430 932" fill="none" xmlns="http://www.w3.org/2000/svg">
<g clip-path="url(#clip0_34_2)">
<rect width="430" height="932" fill="#98C6F7"/>
<path fill-rule="evenodd" clip-rule="evenodd" d="M719.511 591.398C720.953 703.962 616.511 768.938 550.522 844.824C494.93 908.753 437.772 967.259 367.681 995.99C294.745 1025.89 219.303 1032.68 146.259 1010.54C63.6529 985.492 -24.5228 952.525 -72.5934 862.515C-121.731 770.507 -138.477 642.235 -108.508 533.497C-80.5094 431.91 21.8812 408.155 75.5356 325.05C129.504 241.459 115.447 209.81 188.736 157.607C266.012 102.564 371.515 97.7514 442.118 159.848C511.237 220.639 499.215 261.003 544.215 352.647C591.01 447.949 718.036 476.333 719.511 591.398Z" fill="#004587"/>
<path fill-rule="evenodd" clip-rule="evenodd" d="M311.503 -5.33735C393.847 -53.1751 493.979 22.1133 582.948 55.3162C657.9 83.2877 729.631 115.026 785.853 171.687C844.357 230.649 887.063 301.59 907.218 382.121C930.011 473.195 949.739 572.981 907.335 657.094C863.991 743.073 777.701 812.348 682.486 827.904C593.532 842.437 549.134 875.668 461 857.5C360 864.5 334.5 726.5 256.59 692.396C160 657.5 121.097 538.424 131.644 443.799C141.969 351.164 177.762 346.267 222.906 264.483C269.851 179.434 227.33 43.563 311.503 -5.33735Z" fill="#FAB15A"/>
</g>
<defs>
<clipPath id="clip0_34_2">
<rect width="430" height="932" fill="white"/>
</clipPath>
</defs>
</svg>
